<svg width="24" height="24" viewBox="0 0 24 24" fill="none" xmlns="http://www.w3.org/2000/svg">
<path d="M22.0605 18L9 4.9395C8.7141 4.66714 8.33437 4.51521 7.9395 4.51521C7.54463 4.51521 7.1649 4.66714 6.879 4.9395L4.9395 6.879C4.65829 7.16029 4.50032 7.54175 4.50032 7.9395C4.50032 8.33725 4.65829 8.71871 4.9395 9L17.9993 22.0605C18.2805 22.3417 18.662 22.4997 19.0597 22.4997C19.4575 22.4997 19.839 22.3417 20.1203 22.0605L22.0605 20.121C22.3417 19.8397 22.4997 19.4582 22.4997 19.0605C22.4997 18.6628 22.3417 18.2813 22.0605 18ZM6 7.9395L7.9395 6L11.6895 9.75L9.74925 11.6903L6 7.9395ZM19.0597 21L10.8097 12.7507L12.75 10.8105L21 19.0605L19.0597 21ZM1.5 12L3 10.5L4.5 12L3 13.5L1.5 12ZM10.5 3L12 1.5L13.5 3L12 4.5L10.5 3ZM1.5 3L3 1.5L4.5 3L3 4.5L1.5 3Z" fill="white"/>
</svg>
