<?xml version="1.0" encoding="utf-8"?><!-- Uploaded to: SVG Repo, www.svgrepo.com, Generator: SVG Repo Mixer Tools -->
<svg width="800px" height="800px" viewBox="0 0 24 24" fill="none" xmlns="http://www.w3.org/2000/svg">
<path d="M18 20.75H6C5.27065 20.75 4.57118 20.4603 4.05546 19.9445C3.53973 19.4288 3.25 18.7293 3.25 18V6C3.25 5.27065 3.53973 4.57118 4.05546 4.05546C4.57118 3.53973 5.27065 3.25 6 3.25H14.86C15.0589 3.25 15.2497 3.32902 15.3903 3.46967C15.531 3.61032 15.61 3.80109 15.61 4C15.61 4.19891 15.531 4.38968 15.3903 4.53033C15.2497 4.67098 15.0589 4.75 14.86 4.75H6C5.66848 4.75 5.35054 4.8817 5.11612 5.11612C4.8817 5.35054 4.75 5.66848 4.75 6V18C4.75 18.3315 4.8817 18.6495 5.11612 18.8839C5.35054 19.1183 5.66848 19.25 6 19.25H18C18.3315 19.25 18.6495 19.1183 18.8839 18.8839C19.1183 18.6495 19.25 18.3315 19.25 18V10.29C19.25 10.0911 19.329 9.90032 19.4697 9.75967C19.6103 9.61902 19.8011 9.54 20 9.54C20.1989 9.54 20.3897 9.61902 20.5303 9.75967C20.671 9.90032 20.75 10.0911 20.75 10.29V18C20.75 18.7293 20.4603 19.4288 19.9445 19.9445C19.4288 20.4603 18.7293 20.75 18 20.75Z" fill="#000000"/>
<path d="M10.5 15.25C10.3071 15.2352 10.1276 15.1455 10 15L7.00001 12C6.93317 11.86 6.91136 11.7028 6.93759 11.5499C6.96382 11.3971 7.03679 11.2561 7.14646 11.1464C7.25613 11.0368 7.3971 10.9638 7.54996 10.9376C7.70282 10.9113 7.86006 10.9331 8.00001 11L10.47 13.47L19 4.99998C19.14 4.93314 19.2972 4.91133 19.4501 4.93756C19.6029 4.96379 19.7439 5.03676 19.8536 5.14643C19.9632 5.2561 20.0362 5.39707 20.0624 5.54993C20.0887 5.70279 20.0669 5.86003 20 5.99998L11 15C10.8724 15.1455 10.693 15.2352 10.5 15.25Z" fill="#000000"/>
</svg>