<svg width="40" height="40" viewBox="0 0 40 40" fill="none" xmlns="http://www.w3.org/2000/svg">
<rect width="40" height="40" rx="20" fill="#79C201"/>
<path fill-rule="evenodd" clip-rule="evenodd" d="M27.955 14.2592C28.1893 14.4936 28.321 14.8115 28.321 15.1429C28.321 15.4744 28.1893 15.7923 27.955 16.0267L18.5858 25.3958C18.462 25.5197 18.315 25.6179 18.1532 25.6849C17.9914 25.752 17.818 25.7865 17.6429 25.7865C17.4678 25.7865 17.2944 25.752 17.1326 25.6849C16.9708 25.6179 16.8238 25.5197 16.7 25.3958L12.045 20.7417C11.9256 20.6264 11.8304 20.4884 11.7649 20.3359C11.6994 20.1834 11.6649 20.0194 11.6634 19.8534C11.662 19.6874 11.6936 19.5228 11.7565 19.3692C11.8193 19.2156 11.9121 19.076 12.0295 18.9587C12.1469 18.8413 12.2864 18.7485 12.4401 18.6856C12.5937 18.6228 12.7583 18.5912 12.9242 18.5926C13.0902 18.594 13.2542 18.6285 13.4068 18.694C13.5593 18.7595 13.6972 18.8548 13.8125 18.9742L17.6425 22.8042L26.1867 14.2592C26.3027 14.143 26.4406 14.0509 26.5923 13.988C26.744 13.9251 26.9066 13.8928 27.0708 13.8928C27.2351 13.8928 27.3977 13.9251 27.5494 13.988C27.7011 14.0509 27.8389 14.143 27.955 14.2592Z" fill="white"/>
</svg>
