<svg width="20" height="20" viewBox="0 0 20 20" fill="none" xmlns="http://www.w3.org/2000/svg">
<path fill-rule="evenodd" clip-rule="evenodd" d="M17.955 4.25916C18.1893 4.49357 18.321 4.81146 18.321 5.14291C18.321 5.47437 18.1893 5.79225 17.955 6.02666L8.58583 15.3958C8.46201 15.5197 8.31502 15.6179 8.15323 15.6849C7.99144 15.752 7.81803 15.7865 7.64291 15.7865C7.46779 15.7865 7.29438 15.752 7.1326 15.6849C6.97081 15.6179 6.82381 15.5197 6.7 15.3958L2.045 10.7417C1.92561 10.6264 1.83038 10.4884 1.76487 10.3359C1.69936 10.1834 1.66487 10.0194 1.66343 9.85341C1.66199 9.68744 1.69362 9.52284 1.75647 9.36922C1.81932 9.2156 1.91214 9.07603 2.0295 8.95867C2.14687 8.8413 2.28643 8.74849 2.44005 8.68563C2.59367 8.62278 2.75827 8.59116 2.92425 8.5926C3.09022 8.59404 3.25425 8.62852 3.40675 8.69403C3.55926 8.75955 3.69719 8.85477 3.8125 8.97416L7.6425 12.8042L16.1867 4.25916C16.3027 4.143 16.4406 4.05086 16.5923 3.98799C16.744 3.92512 16.9066 3.89276 17.0708 3.89276C17.2351 3.89276 17.3977 3.92512 17.5494 3.98799C17.7011 4.05086 17.8389 4.143 17.955 4.25916Z" fill="white"/>
</svg>
