   <svg width="24" height="24" viewBox="0 0 36 36" fill="none" xmlns="http://www.w3.org/2000/svg">
                        <path
                            d="M9 16.5C9 12.258 9 10.1355 10.3185 8.8185C11.6355 7.5 13.758 7.5 18 7.5H22.5C26.742 7.5 28.8645 7.5 30.1815 8.8185C31.5 10.1355 31.5 12.258 31.5 16.5V24C31.5 28.242 31.5 30.3645 30.1815 31.6815C28.8645 33 26.742 33 22.5 33H18C13.758 33 11.6355 33 10.3185 31.6815C9 30.3645 9 28.242 9 24V16.5Z"
                            stroke="black" stroke-width="2.5" />
                        <path
                            d="M9 28.5C7.80653 28.5 6.66193 28.0259 5.81802 27.182C4.97411 26.3381 4.5 25.1935 4.5 24V15C4.5 9.3435 4.5 6.5145 6.258 4.758C8.0145 3 10.8435 3 16.5 3H22.5C23.6935 3 24.8381 3.47411 25.682 4.31802C26.5259 5.16193 27 6.30653 27 7.5"
                            stroke="black" stroke-width="2.5" />
                    </svg>