<svg width="36" height="36" viewBox="0 0 36 36" fill="none" xmlns="http://www.w3.org/2000/svg">
<path d="M31.95 8.1C31.592 8.1 31.2486 7.95777 30.9954 7.70459C30.7422 7.45142 30.6 7.10804 30.6 6.75V5.4H29.25C28.892 5.4 28.5486 5.25777 28.2954 5.00459C28.0422 4.75142 27.9 4.40804 27.9 4.05C27.9 3.69196 28.0422 3.34858 28.2954 3.09541C28.5486 2.84223 28.892 2.7 29.25 2.7H30.6V1.35C30.6 0.991958 30.7422 0.64858 30.9954 0.395406C31.2486 0.142232 31.592 0 31.95 0C32.308 0 32.6514 0.142232 32.9046 0.395406C33.1578 0.64858 33.3 0.991958 33.3 1.35V2.7H34.65C35.008 2.7 35.3514 2.84223 35.6046 3.09541C35.8578 3.34858 36 3.69196 36 4.05C36 4.40804 35.8578 4.75142 35.6046 5.00459C35.3514 5.25777 35.008 5.4 34.65 5.4H33.3V6.75C33.3 7.10804 33.1578 7.45142 32.9046 7.70459C32.6514 7.95777 32.308 8.1 31.95 8.1ZM12.2382 3.1104C12.2633 2.98639 12.3262 2.8732 12.4182 2.7864C12.501 2.7144 12.5658 2.7 12.6018 2.7C12.6378 2.7 12.7026 2.7126 12.7854 2.7882C12.8768 2.87404 12.9396 2.98588 12.9654 3.1086C13.4259 5.3577 14.531 7.42414 16.146 9.0558C17.7759 10.6722 19.8422 11.7776 22.0914 12.2364C22.2174 12.2616 22.3344 12.3318 22.4118 12.4164C22.4874 12.4992 22.5 12.564 22.5 12.6C22.5 12.636 22.4874 12.7008 22.4118 12.7836C22.326 12.875 22.2141 12.9378 22.0914 12.9636C19.8424 13.4239 17.7763 14.5298 16.146 16.146C14.5314 17.7763 13.4268 19.8416 12.9672 22.0896C12.9416 22.2138 12.8781 22.327 12.7854 22.4136C12.7026 22.4856 12.6378 22.5 12.6018 22.5C12.5658 22.5 12.501 22.4874 12.4182 22.4118C12.3268 22.326 12.264 22.2141 12.2382 22.0914C11.7777 19.8423 10.6726 17.7759 9.0576 16.1442C7.42769 14.5278 5.36137 13.4224 3.1122 12.9636C2.98884 12.9382 2.87632 12.8753 2.79 12.7836C2.718 12.699 2.7036 12.636 2.7018 12.6C2.7018 12.564 2.7162 12.4992 2.79 12.4182C2.87631 12.3248 2.98955 12.2607 3.114 12.2346C5.36197 11.775 7.42732 10.6704 9.0576 9.0558C10.6731 7.42526 11.7784 5.35921 12.2382 3.1104ZM12.6 0C11.0106 0 9.864 1.251 9.594 2.5596C9.24091 4.29376 8.39025 5.8875 7.146 7.146C5.88848 8.38964 4.29608 9.24026 2.5632 9.594C1.2528 9.864 -1.30548e-07 11.0124 0.00179987 12.6054C0.00539987 14.193 1.2564 15.336 2.5632 15.6078C4.29667 15.9592 5.88996 16.8087 7.1478 18.0522C8.7138 19.62 9.3438 21.4362 9.594 22.6404C9.864 23.949 11.0124 25.2 12.6 25.2C14.193 25.2 15.3378 23.949 15.6096 22.6386C15.9623 20.9061 16.8117 19.3138 18.054 18.0558C19.3125 16.8115 20.9062 15.9609 22.6404 15.6078C23.949 15.3378 25.2 14.1912 25.2 12.6018C25.2 11.0088 23.949 9.864 22.6386 9.5922C20.9056 9.23995 19.3129 8.38983 18.0558 7.146C16.8122 5.88727 15.9622 4.29356 15.6096 2.5596C15.3378 1.251 14.193 0 12.6036 0M13.5 26.9172V30.15C13.5 31.8888 14.9112 33.3 16.65 33.3H30.15C30.9854 33.3 31.7866 32.9681 32.3774 32.3774C32.9681 31.7866 33.3 30.9854 33.3 30.15V16.65C33.3 15.8146 32.9681 15.0134 32.3774 14.4226C31.7866 13.8319 30.9854 13.5 30.15 13.5H26.9172C27.0854 12.5926 26.9917 11.6561 26.6472 10.8H30.15C31.7015 10.8 33.1895 11.4163 34.2866 12.5134C35.3837 13.6105 36 15.0985 36 16.65V30.15C36 30.9182 35.8487 31.6789 35.5547 32.3887C35.2607 33.0984 34.8298 33.7434 34.2866 34.2866C33.7434 34.8298 33.0984 35.2607 32.3887 35.5547C31.6789 35.8487 30.9182 36 30.15 36H16.65C15.8818 36 15.1211 35.8487 14.4113 35.5547C13.7015 35.2607 13.0566 34.8298 12.5134 34.2866C11.9702 33.7434 11.5393 33.0984 11.2453 32.3887C10.9513 31.6789 10.8 30.9182 10.8 30.15V26.6472C11.6561 26.9917 12.5926 27.0854 13.5 26.9172ZM18 21.15C18 20.792 18.1422 20.4486 18.3954 20.1954C18.6486 19.9422 18.992 19.8 19.35 19.8H29.25C29.608 19.8 29.9514 19.9422 30.2046 20.1954C30.4578 20.4486 30.6 20.792 30.6 21.15C30.6 21.508 30.4578 21.8514 30.2046 22.1046C29.9514 22.3578 29.608 22.5 29.25 22.5H19.35C18.992 22.5 18.6486 22.3578 18.3954 22.1046C18.1422 21.8514 18 21.508 18 21.15ZM19.35 25.2C18.992 25.2 18.6486 25.3422 18.3954 25.5954C18.1422 25.8486 18 26.192 18 26.55C18 26.908 18.1422 27.2514 18.3954 27.5046C18.6486 27.7578 18.992 27.9 19.35 27.9H25.65C26.008 27.9 26.3514 27.7578 26.6046 27.5046C26.8578 27.2514 27 26.908 27 26.55C27 26.192 26.8578 25.8486 26.6046 25.5954C26.3514 25.3422 26.008 25.2 25.65 25.2H19.35ZM1.35 30.6C0.991958 30.6 0.64858 30.7422 0.395406 30.9954C0.142232 31.2486 0 31.592 0 31.95C0 32.308 0.142232 32.6514 0.395406 32.9046C0.64858 33.1578 0.991958 33.3 1.35 33.3H2.7V34.65C2.7 35.008 2.84223 35.3514 3.09541 35.6046C3.34858 35.8578 3.69196 36 4.05 36C4.40804 36 4.75142 35.8578 5.00459 35.6046C5.25777 35.3514 5.4 35.008 5.4 34.65V33.3H6.75C7.10804 33.3 7.45142 33.1578 7.70459 32.9046C7.95777 32.6514 8.1 32.308 8.1 31.95C8.1 31.592 7.95777 31.2486 7.70459 30.9954C7.45142 30.7422 7.10804 30.6 6.75 30.6H5.4V29.25C5.4 28.892 5.25777 28.5486 5.00459 28.2954C4.75142 28.0422 4.40804 27.9 4.05 27.9C3.69196 27.9 3.34858 28.0422 3.09541 28.2954C2.84223 28.5486 2.7 28.892 2.7 29.25V30.6H1.35Z" fill="black"/>
</svg>
