<svg width="36" height="36" viewBox="0 0 36 36" fill="none" xmlns="http://www.w3.org/2000/svg">
<path d="M18 0C16.2211 0 14.6813 1.03359 13.95 2.53125C13.4578 2.34844 12.9305 2.25 12.375 2.25C9.89299 2.25 7.87502 4.26797 7.87502 6.75V18.3867L7.68518 18.1969C5.92737 16.4391 3.07971 16.4391 1.3219 18.1969C-0.435913 19.9547 -0.435913 22.8023 1.3219 24.5602L7.48831 30.7266C10.8633 34.1016 15.4406 36 20.2149 36H21.375C21.4805 36 21.586 35.993 21.6914 35.9719C28.1391 35.5359 33.293 30.3891 33.7219 23.9414C33.743 23.8359 33.75 23.7305 33.75 23.625V11.25C33.75 8.76797 31.7321 6.75 29.25 6.75C28.8633 6.75 28.4836 6.79922 28.125 6.89062V6.75C28.125 4.26797 26.1071 2.25 23.625 2.25C23.0696 2.25 22.5422 2.34844 22.05 2.53125C21.3188 1.03359 19.7789 0 18 0ZM16.875 6.75703V4.5C16.875 3.88125 17.3813 3.375 18 3.375C18.6188 3.375 19.125 3.88125 19.125 4.5V16.3125C19.125 17.2477 19.8774 18 20.8125 18C21.7477 18 22.5 17.2477 22.5 16.3125V6.74297C22.5 6.12422 23.0063 5.61797 23.625 5.61797C24.2438 5.61797 24.75 6.12422 24.75 6.74297V16.3055C24.75 17.2406 25.5024 17.993 26.4375 17.993C27.3727 17.993 28.125 17.2406 28.125 16.3055V11.25C28.125 10.6313 28.6313 10.125 29.25 10.125C29.8688 10.125 30.375 10.6313 30.375 11.25V23.407C30.368 23.4492 30.368 23.4984 30.361 23.5406C30.1219 28.4414 26.1914 32.3719 21.2906 32.6109C21.2485 32.6109 21.1992 32.618 21.1571 32.625H20.2149C16.3336 32.625 12.6141 31.0852 9.8719 28.343L3.70549 22.1695C3.26956 21.7336 3.26956 21.0164 3.70549 20.5805C4.14143 20.1445 4.85862 20.1445 5.29456 20.5805L8.36721 23.6531C8.85237 24.1383 9.57659 24.2789 10.2094 24.0188C10.8422 23.7586 11.25 23.1398 11.25 22.4578V6.75C11.25 6.13125 11.7563 5.625 12.375 5.625C12.9938 5.625 13.5 6.12422 13.5 6.74297V16.3125C13.5 17.2477 14.2524 18 15.1875 18C16.1227 18 16.875 17.2477 16.875 16.3125V6.75703Z" fill="black"/>
</svg>
