<?xml version="1.0" encoding="iso-8859-1"?>
<!-- Uploaded to: SVG Repo, www.svgrepo.com, Generator: SVG Repo Mixer Tools -->
<svg fill="#000000" height="800px" width="800px" version="1.1" id="Layer_1" xmlns="http://www.w3.org/2000/svg" xmlns:xlink="http://www.w3.org/1999/xlink" 
	 viewBox="0 0 512 512" xml:space="preserve">
<g>
	<g>
		<g>
			<path d="M256,5.333C114.88,5.333,0,117.76,0,256s114.88,250.667,256,250.667S512,394.24,512,256S397.12,5.333,256,5.333z
				 M256,485.333C126.613,485.333,21.333,382.4,21.333,256S126.613,26.667,256,26.667S490.667,129.493,490.667,256
				S385.387,485.333,256,485.333z"/>
			<path d="M337.387,381.013c-0.107-0.107-0.32-0.213-0.427-0.32L167.36,256l169.6-124.8c4.8-3.413,5.76-10.133,2.347-14.827
				c-3.52-4.8-10.133-5.76-14.933-2.24L143.04,247.467c-4.693,3.52-5.76,10.133-2.24,14.933c0.64,0.853,1.387,1.6,2.24,2.24
				l181.333,133.227c4.693,3.627,11.307,2.773,14.933-1.92C342.933,391.253,342.08,384.64,337.387,381.013z"/>
		</g>
	</g>
</g>
</svg>