<svg width="48" height="44" viewBox="0 0 48 44" fill="none" xmlns="http://www.w3.org/2000/svg">
<path d="M6 30C5.175 30 4.469 29.7065 3.882 29.1195C3.295 28.5325 3.001 27.826 3 27V9C3 8.175 3.294 7.469 3.882 6.882C4.47 6.295 5.176 6.001 6 6H30C30.825 6 31.5315 6.294 32.1195 6.882C32.7075 7.47 33.001 8.176 33 9V27C33 27.825 32.7065 28.5315 32.1195 29.1195C31.5325 29.7075 30.826 30.001 30 30H6ZM6 27H30V9H6V27Z" fill="black"/>
<path d="M42.4128 37.3503C42.4961 38.0144 41.9161 38.5712 41.2559 38.461L35.3198 37.4696C34.5084 37.334 34.1986 36.3315 34.792 35.7618L39.9795 30.7817C40.5729 30.212 41.562 30.5625 41.6643 31.3787L42.4128 37.3503Z" fill="black"/>
</svg>
