<svg width="36" height="36" viewBox="0 0 36 36" fill="none" xmlns="http://www.w3.org/2000/svg">
<path d="M24.861 28.8L18.954 22.893L17.1495 24.696C15.3045 26.544 14.3805 27.4665 13.3875 27.249C12.3945 27.03 11.943 25.8045 11.04 23.355L8.02949 15.18C6.22799 10.2915 5.32499 7.848 6.58499 6.588C7.84499 5.328 10.29 6.228 15.18 8.031L23.355 11.04C25.8045 11.943 27.03 12.3945 27.249 13.3875C27.4665 14.3805 26.544 15.303 24.696 17.1495L22.893 18.954L28.8 24.861C29.412 25.473 29.718 25.779 29.859 26.121C30.0465 26.5755 30.0465 27.0855 29.859 27.5415C29.718 27.882 29.412 28.188 28.8 28.8C28.188 29.412 27.882 29.718 27.54 29.859C27.0852 30.0473 26.5743 30.0473 26.1195 29.859C25.779 29.718 25.4745 29.412 24.861 28.8Z" stroke="black" stroke-width="3" stroke-linecap="round" stroke-linejoin="round"/>
</svg>
