<svg xmlns="http://www.w3.org/2000/svg" version="1.1" viewBox="-5.0 -10.0 110.0 135.0">
 <path d="m86 73h-72c-1.6523 0-3 1.3477-3 3v10c0 1.6523 1.3477 3 3 3h72c1.6523 0 3-1.3477 3-3v-10c0-1.6523-1.3477-3-3-3zm1 13c0 0.55078-0.44922 1-1 1h-72c-0.55078 0-1-0.44922-1-1v-10c0-0.55078 0.44922-1 1-1h72c0.55078 0 1 0.44922 1 1zm-71-9h2v8h-2zm-2.8633-49.828c0.63672 2.75 3.4727 4.8281 6.8633 4.8281s6.2266-2.0781 6.8633-4.8281c0.72266-0.10156 2.1367-0.3125 2.1367-0.3125v-6.8594c0-2.1211-0.74219-4.0703-1.9766-5.6094l1.6836-1.6836c0.39062-0.39062 0.39062-1.0234 0-1.4141s-1.0234-0.39062-1.4141 0l-1.6836 1.6836c-1.5391-1.2344-3.4883-1.9766-5.6094-1.9766-1.8633 0-3.6016 0.57031-5.0391 1.5469l-1.2539-1.2539c-0.39062-0.39062-1.0234-0.39062-1.4141 0s-0.39062 1.0234 0 1.4141l1.1484 1.1484c-1.5078 1.6133-2.4414 3.7695-2.4414 6.1445v6.8594c0 0.003906 1.4141 0.21484 2.1367 0.3125zm6.8633 2.8281c-2.1094 0-3.9102-1.0547-4.6406-2.5352 1.6641 0.20312 3.5234 0.39453 4.6406 0.39453s2.9805-0.19141 4.6445-0.39453c-0.73438 1.4805-2.5352 2.5352-4.6445 2.5352zm7-4.8672c-1.3867 0.19531-4.1445 0.5625-6 0.68359v-12.734c1.1914 0.17188 2.2891 0.64453 3.2109 1.3398-0.28516 0.39062-0.26953 0.93359 0.085937 1.2852 0.46484 0.46484 1.0078 0.28906 1.2852 0.085938 0.88672 1.1719 1.418 2.6289 1.418 4.207zm-14-5.1328c0-1.8242 0.70703-3.4844 1.8555-4.7305l0.4375 0.4375c0.39062 0.39062 1.0234 0.39062 1.4141 0s0.39062-1.0234 0-1.4141l-0.29297-0.29297c0.77734-0.46875 1.6523-0.78516 2.5859-0.91797v12.734c-1.8555-0.11719-4.6133-0.48438-6-0.68359zm5 2c0 1.1055-0.89453 2-2 2s-2-0.89453-2-2 0.89453-2 2-2 2 0.89453 2 2zm8 0c0 1.1055-0.89453 2-2 2s-2-0.89453-2-2 0.89453-2 2-2 2 0.89453 2 2zm53 24c0 1.1055-0.89453 2-2 2s-2-0.89453-2-2 0.89453-2 2-2 2 0.89453 2 2zm4 2c-1.1055 0-2-0.89453-2-2s0.89453-2 2-2 2 0.89453 2 2-0.89453 2-2 2zm1-37h-42c-2.7578 0-5 2.2422-5 5v2.6367l-6.1367 7.3633h6.2344c0.46484 2.2773 2.4844 4 4.8984 4h42c2.7578 0 5-2.2422 5-5v-9c0.003906-2.7578-2.2383-5-4.9961-5zm3 14c0 1.6523-1.3477 3-3 3h-42c-1.6523 0-3-1.3477-3-3v-1h-3.8633l3.8633-4.6367v-3.3633c0-1.6523 1.3477-3 3-3h42c1.6523 0 3 1.3477 3 3zm-71 36h42c2.4141 0 4.4336-1.7227 4.8984-4h6.2344l-6.1328-7.3633v-2.6367c0-2.7578-2.2422-5-5-5h-42c-2.7578 0-5 2.2422-5 5v9c0 2.7578 2.2422 5 5 5zm-3-14c0-1.6523 1.3477-3 3-3h42c1.6523 0 3 1.3477 3 3v3.3633l3.8633 4.6367h-3.8633v1c0 1.6523-1.3477 3-3 3h-42c-1.6523 0-3-1.3477-3-3zm70.973 5.9375c2.4023-1.3828 4.0273-3.9727 4.0273-6.9375 0-4.4102-3.5898-8-8-8s-8 3.5898-8 8c0 2.9648 1.625 5.5547 4.0273 6.9375-2.9727 1.4688-5.0273 4.5273-5.0273 8.0625v1h18v-1c0-3.5352-2.0547-6.5938-5.0273-8.0625zm-9.9727-6.9375c0-3.3086 2.6914-6 6-6s6 2.6914 6 6-2.6914 6-6 6-6-2.6914-6-6zm-0.92969 14c0.48438-3.3867 3.4062-6 6.9297-6 3.5195 0 6.4414 2.6133 6.9297 6z"/>
<text x="0.0" y="117.5" font-size="5.0" font-weight="bold" font-family="Arbeit Regular, Helvetica, Arial-Unicode, Arial, Sans-serif" fill="#000000">Created by b farias</text><text x="0.0" y="122.5" font-size="5.0" font-weight="bold" font-family="Arbeit Regular, Helvetica, Arial-Unicode, Arial, Sans-serif" fill="#000000">

from Noun Project</text></svg>