<svg xmlns="http://www.w3.org/2000/svg" shape-rendering="geometricPrecision" text-rendering="geometricPrecision" image-rendering="optimizeQuality" fill-rule="evenodd" clip-rule="evenodd" viewBox="0 0 492 512.324"><circle fill="#39BF46" cx="231.181" cy="231.181" r="231.181"/><path fill="#44944D" d="M437.686 127.17C471.6 167.894 492 220.259 492 277.396c0 129.745-105.183 234.928-234.928 234.928-103.432 0-191.249-66.843-222.619-159.684 40.74 65.851 113.605 109.722 196.728 109.722 127.682 0 231.181-103.499 231.181-231.181 0-37.413-8.899-72.75-24.676-104.011z"/><path fill="#fff" fill-rule="nonzero" d="M310.157 247.385c14.223-9.189 14.175-19.412 0-27.548l-111.136-81.318c-11.585-7.276-23.672-3.005-23.354 12.126l.455 159.767c.995 16.407 10.358 20.9 24.165 13.315l109.87-76.342z"/></svg>