<svg width="36" height="36" viewBox="0 0 36 36" fill="none" xmlns="http://www.w3.org/2000/svg">
<path d="M6 8.25C6 7.65326 6.23705 7.08097 6.65901 6.65901C7.08097 6.23705 7.65326 6 8.25 6H26.25C26.8467 6 27.419 6.23705 27.841 6.65901C28.2629 7.08097 28.5 7.65326 28.5 8.25V12.75C28.5 13.3467 28.2629 13.919 27.841 14.341C27.419 14.7629 26.8467 15 26.25 15C25.6533 15 25.081 14.7629 24.659 14.341C24.2371 13.919 24 13.3467 24 12.75V10.5H19.5V25.5H20.25C20.8467 25.5 21.419 25.7371 21.841 26.159C22.2629 26.581 22.5 27.1533 22.5 27.75C22.5 28.3467 22.2629 28.919 21.841 29.341C21.419 29.7629 20.8467 30 20.25 30H14.25C13.6533 30 13.081 29.7629 12.659 29.341C12.2371 28.919 12 28.3467 12 27.75C12 27.1533 12.2371 26.581 12.659 26.159C13.081 25.7371 13.6533 25.5 14.25 25.5H15V10.5H10.5V12.75C10.5 13.3467 10.2629 13.919 9.84099 14.341C9.41903 14.7629 8.84674 15 8.25 15C7.65326 15 7.08097 14.7629 6.65901 14.341C6.23705 13.919 6 13.3467 6 12.75V8.25Z" fill="black"/>
</svg>
